<svg xmlns="http://www.w3.org/2000/svg" style="display:none" aria-hidden="true"><defs><linearGradient id="icon-gold-fill" x1="0" y1="0" x2="1" y2="1"><stop offset="0" stop-color="#f6e3a3"/><stop offset="0.5" stop-color="#d4af37"/><stop offset="1" stop-color="#8a6f2a"/></linearGradient></defs><symbol id="icon-dashboard" viewBox="0 0 24 24"><path d="M3 13h8V3H3v10Zm10 8h8V11h-8v10ZM3 21h8v-6H3v6ZM13 9h8V3h-8v6Z" /></symbol><symbol id="icon-notification" viewBox="0 0 24 24"><path d="M15 17h5l-1.4-1.4A2 2 0 0 1 18 14.2V11a6 6 0 1 0-12 0v3.2c0 .5-.2 1-.6 1.4L4 17h5m6 0v1a3 3 0 1 1-6 0v-1m6 0H9" /></symbol><symbol id="icon-users" viewBox="0 0 24 24"><path d="M17 20v-1a4 4 0 0 0-4-4H7a4 4 0 0 0-4 4v1M15 9a4 4 0 1 0 0-8 4 4 0 0 0 0 8Zm5 11v-1a4 4 0 0 0-3-3.87M15 5a4 4 0 0 1 0 8" /></symbol><symbol id="icon-roles" viewBox="0 0 24 24"><path d="M12 3 4 6v6c0 5 3.4 8.5 8 9 4.6-.5 8-4 8-9V6l-8-3Z" /><path d="m9 12 2 2 4-4" /></symbol><symbol id="icon-pages" viewBox="0 0 24 24"><path d="M8 3h6l5 5v11a2 2 0 0 1-2 2H8a2 2 0 0 1-2-2V5a2 2 0 0 1 2-2Z" /><path d="M14 3v5h5M9 13h6M9 17h6M9 9h2" /></symbol><symbol id="icon-media" viewBox="0 0 24 24"><path d="M4 5h16a1 1 0 0 1 1 1v12a1 1 0 0 1-1 1H4a1 1 0 0 1-1-1V6a1 1 0 0 1 1-1Z" /><circle cx="9" cy="10" r="2" /><path d="m4 17 5-5 4 4 3-3 4 4" /></symbol><symbol id="icon-menu" viewBox="0 0 24 24"><path d="M4 6h16M4 12h10M4 18h16" /></symbol><symbol id="icon-seo" viewBox="0 0 24 24"><circle cx="11" cy="11" r="7" /><path d="m20 20-4.3-4.3" /></symbol><symbol id="icon-comments" viewBox="0 0 24 24"><path d="M4 5h16v11H8l-4 4V5Z" /></symbol><symbol id="icon-settings" viewBox="0 0 24 24"><circle cx="12" cy="12" r="3" /><path d="M19.4 15a1.7 1.7 0 0 0 .3 1.9l.1.1a2 2 0 1 1-2.8 2.8l-.1-.1a1.7 1.7 0 0 0-1.9-.3 1.7 1.7 0 0 0-1 1.6V21a2 2 0 1 1-4 0v-.2a1.7 1.7 0 0 0-1-1.5 1.7 1.7 0 0 0-1.9.3l-.1.1a2 2 0 1 1-2.8-2.8l.1-.1a1.7 1.7 0 0 0 .3-1.9 1.7 1.7 0 0 0-1.6-1H3a2 2 0 1 1 0-4h.2a1.7 1.7 0 0 0 1.5-1 1.7 1.7 0 0 0-.3-1.9l-.1-.1a2 2 0 1 1 2.8-2.8l.1.1a1.7 1.7 0 0 0 1.9.3H9a1.7 1.7 0 0 0 1-1.6V3a2 2 0 1 1 4 0v.2a1.7 1.7 0 0 0 1 1.5 1.7 1.7 0 0 0 1.9-.3l.1-.1a2 2 0 1 1 2.8 2.8l-.1.1a1.7 1.7 0 0 0-.3 1.9V9c.2.6.7 1 1.6 1H21a2 2 0 1 1 0 4h-.2a1.7 1.7 0 0 0-1.4 1Z" /></symbol><symbol id="icon-system-settings" viewBox="0 0 24 24"><path d="M4 4h16v4H4V4Zm0 6h16v10H4V10Z" /><path d="M8 14h.01M8 18h.01" /></symbol><symbol id="icon-audit-log" viewBox="0 0 24 24"><path d="M12 8v4l3 2" /><circle cx="12" cy="12" r="9" /></symbol><symbol id="icon-plugins" viewBox="0 0 24 24"><path d="M14 3h-4v4H7a2 2 0 0 0-2 2v3H1v4h4v3a2 2 0 0 0 2 2h3v-4h4v4h3a2 2 0 0 0 2-2v-3h4v-4h-4V9a2 2 0 0 0-2-2h-3V3Z" /></symbol><symbol id="icon-ecommerce" viewBox="0 0 24 24"><circle cx="9" cy="20" r="1" /><circle cx="18" cy="20" r="1" /><path d="M3 4h2l2.4 12.2a2 2 0 0 0 2 1.6h7.2a2 2 0 0 0 2-1.6L21 8H6" /></symbol><symbol id="icon-plus" viewBox="0 0 24 24"><path d="M12 5v14M5 12h14" /></symbol><symbol id="icon-edit" viewBox="0 0 24 24"><path d="M12 20h9" /><path d="M16.5 3.5a2.1 2.1 0 0 1 3 3L7 19l-4 1 1-4Z" /></symbol><symbol id="icon-trash" viewBox="0 0 24 24"><path d="M3 6h18" /><path d="M8 6V4a2 2 0 0 1 2-2h4a2 2 0 0 1 2 2v2m3 0-1 14a2 2 0 0 1-2 2H7a2 2 0 0 1-2-2L4 6h16Z" /></symbol><symbol id="icon-lock" viewBox="0 0 24 24"><rect x="4" y="11" width="16" height="9" rx="2" /><path d="M8 11V7a4 4 0 0 1 8 0v4" /></symbol><symbol id="icon-unlock" viewBox="0 0 24 24"><rect x="4" y="11" width="16" height="9" rx="2" /><path d="M8 11V7a4 4 0 0 1 7.4-2" /></symbol><symbol id="icon-logout" viewBox="0 0 24 24"><path d="M9 21H5a2 2 0 0 1-2-2V5a2 2 0 0 1 2-2h4" /><path d="M16 17l5-5-5-5" /><path d="M21 12H9" /></symbol><symbol id="icon-search" viewBox="0 0 24 24"><circle cx="11" cy="11" r="7" /><path d="m20 20-4.3-4.3" /></symbol><symbol id="icon-check" viewBox="0 0 24 24"><path d="M20 6 9 17l-5-5" /></symbol><symbol id="icon-x" viewBox="0 0 24 24"><path d="M18 6 6 18M6 6l12 12" /></symbol><symbol id="icon-upload" viewBox="0 0 24 24"><path d="M12 3v12" /><path d="m7 8 5-5 5 5" /><path d="M4 17v2a2 2 0 0 0 2 2h12a2 2 0 0 0 2-2v-2" /></symbol><symbol id="icon-filter" viewBox="0 0 24 24"><path d="M4 4h16l-6 8v6l-4 2v-8Z" /></symbol><symbol id="icon-folder" viewBox="0 0 24 24"><path d="M3 7a2 2 0 0 1 2-2h4l2 2h8a2 2 0 0 1 2 2v8a2 2 0 0 1-2 2H5a2 2 0 0 1-2-2V7Z" /></symbol><symbol id="icon-assign" viewBox="0 0 24 24"><path d="M16 21v-2a4 4 0 0 0-4-4H6a4 4 0 0 0-4 4v2" /><circle cx="9" cy="7" r="4" /><path d="M22 11h-6M19 8v6" /></symbol><symbol id="icon-server" viewBox="0 0 24 24"><rect x="3" y="4" width="18" height="7" rx="1.5" /><rect x="3" y="13" width="18" height="7" rx="1.5" /><path d="M7 7.5h.01M7 16.5h.01" /></symbol><symbol id="icon-palette" viewBox="0 0 24 24"><path d="M12 2a10 10 0 1 0 0 20c1.1 0 2-1 2-2 0-.5-.2-1-.5-1.4-.3-.4-.5-.8-.5-1.3 0-1 .8-1.8 1.8-1.8H17a3 3 0 0 0 3-3c0-5-3.6-9-8-9Z" /><circle cx="7.5" cy="10.5" r="1" /><circle cx="10.5" cy="7" r="1" /><circle cx="15" cy="8" r="1" /></symbol><symbol id="icon-billing" viewBox="0 0 24 24"><rect x="2" y="5" width="20" height="14" rx="2" /><path d="M2 10h20M6 15h4" /></symbol><symbol id="icon-home" viewBox="0 0 24 24"><path d="m3 9 9-7 9 7v11a2 2 0 0 1-2 2H5a2 2 0 0 1-2-2Z" /><path d="M9 22V12h6v10" /></symbol><symbol id="icon-mail" viewBox="0 0 24 24"><rect x="3" y="5" width="18" height="14" rx="2" /><path d="m3 7 9 6 9-6" /></symbol><symbol id="icon-kpi-pages" viewBox="0 0 24 24"><path d="M6 3h8l5 5v12a1 1 0 0 1-1 1H6a1 1 0 0 1-1-1V4a1 1 0 0 1 1-1Z" fill="url(#icon-gold-fill)" stroke="none" /><path d="M14 3v5h5" fill="none" stroke="#3d2f10" stroke-width="1" stroke-linejoin="round" /><path d="M8 13h8M8 16.5h8M8 20h5" stroke="#3d2f10" stroke-width="1.3" stroke-linecap="round" /></symbol><symbol id="icon-kpi-media" viewBox="0 0 24 24"><rect x="2.5" y="7" width="19" height="13" rx="2" fill="url(#icon-gold-fill)" stroke="none" /><path d="M8 7 9.4 4.5h5.2L16 7Z" fill="url(#icon-gold-fill)" stroke="none" /><circle cx="12" cy="14" r="4" fill="#3d2f10" /><circle cx="12" cy="14" r="2.4" fill="url(#icon-gold-fill)" /><circle cx="17.5" cy="10" r="0.9" fill="#3d2f10" /></symbol><symbol id="icon-kpi-users" viewBox="0 0 24 24"><circle cx="9" cy="8" r="3.2" fill="url(#icon-gold-fill)" /><path d="M3.2 20c0-3.6 2.5-6 5.8-6s5.8 2.4 5.8 6" fill="url(#icon-gold-fill)" /><circle cx="17" cy="7.3" r="2.5" fill="url(#icon-gold-fill)" opacity="0.72" /><path d="M14.2 20c-.1-3 1.8-5.6 4.4-5.8 2.7-.2 5.1 2 5.1 5.8" fill="url(#icon-gold-fill)" opacity="0.72" /></symbol><symbol id="icon-kpi-roles" viewBox="0 0 24 24"><circle cx="10" cy="7.5" r="3.4" fill="url(#icon-gold-fill)" /><path d="M4 20c0-3.8 2.7-6.3 6-6.3 1.4 0 2.7.4 3.7 1.2" fill="url(#icon-gold-fill)" /><circle cx="17.3" cy="16" r="4.6" fill="#3d2f10" /><path d="M15.1 16.1l1.5 1.5 3-3.1" fill="none" stroke="url(#icon-gold-fill)" stroke-width="1.6" stroke-linecap="round" stroke-linejoin="round" /></symbol><symbol id="icon-star" viewBox="0 0 24 24"><path d="M12 2.5 14.7 8.6l6.6.6-5 4.4 1.5 6.5L12 16.8 6.2 20.1l1.5-6.5-5-4.4 6.6-.6Z" fill="url(#icon-gold-fill)" stroke="none" /></symbol></svg>